<svg xmlns="http://www.w3.org/2000/svg" width="16" height="16" viewBox="0 0 16 16">
    <g fill="#B6BBC7" fill-rule="nonzero">
        <path d="M3.556 9.778h1.778v1.778H3.556zM7.111 9.778h1.778v1.778H7.111zM10.667 9.778h1.778v1.778h-1.778z"/>
        <path d="M14.222 2.222V0h-1.778v2.222H8.89V0H7.11v2.222H3.556V0H1.778v2.222H0v12.89h16V2.221h-1.778zm0 11.111H1.778V4.444h12.444v8.89z"/>
        <path d="M3.556 9.778h1.778v1.778H3.556zM7.111 9.778h1.778v1.778H7.111zM10.667 9.778h1.778v1.778h-1.778zM3.556 6.222h1.778V8H3.556z"/>
        <path d="M3.556 9.778h1.778v1.778H3.556zM7.111 6.222h1.778V8H7.111zM7.111 9.778h1.778v1.778H7.111zM10.667 6.222h1.778V8h-1.778zM10.667 9.778h1.778v1.778h-1.778z"/>
    </g>
</svg>
