<svg xmlns="http://www.w3.org/2000/svg" width="16" height="16" viewBox="0 0 16 16">
    <path fill="#B6BBC7" fill-rule="nonzero" d="M10.217 14.723v.852c0 .235-.191.425-.426.425H.426A.426.426 0 0 1 0 15.575v-.852c0-.235.19-.425.426-.425h.851a.426.426 0 0 1-.426-.426v-.852c0-.235.191-.425.426-.425H8.94c.235 0 .425.19.425.425v.852c0 .235-.19.426-.425.426h.851c.235 0 .426.19.426.425zm5.658-3.706l-5.871-5.872 2.04-2.04a.425.425 0 0 0 0-.602L9.666.125a.425.425 0 0 0-.602 0L3.707 5.483a.425.425 0 0 0 0 .602l2.377 2.378a.425.425 0 0 0 .602 0l2.04-2.04 5.872 5.87a.425.425 0 0 0 .602 0l.675-.674a.426.426 0 0 0 0-.602z"/>
</svg>
