<svg xmlns="http://www.w3.org/2000/svg" width="16" height="16" viewBox="0 0 16 16">
    <g fill="#6124E2" fill-rule="nonzero">
        <path d="M14.507 7.129l-1.725-.516-.035-.089c-.018-.07-.09-.142-.178-.213l-.178-.124.142-.16a3.83 3.83 0 0 0 .32-.41c.196-.284.356-.586.48-.888.054-.125.107-.249.143-.373l.017-.054.036-.035a.504.504 0 0 0 .178-.391V3.36a.6.6 0 0 0-.09-.302l-.035-.054v-.782A2.102 2.102 0 0 0 11.484.124h-.746A2.102 2.102 0 0 0 8.64 2.222v.782l-.036.054a.465.465 0 0 0-.088.302v.516c0 .142.07.302.177.39l.036.036.018.054c.035.124.089.248.142.373.124.302.284.604.48.889.107.142.213.284.32.409l.142.16-.178.124c-.089.071-.16.142-.177.213l-.036.09-.924.284v.018c-.783.764-.872 1.813-.872 1.813l1.903.747c.409.124.853 1.297 1.226 2.826.107 0 .214.018.32.018.214 0 .427 0 .64-.018A9.74 9.74 0 0 0 16 10.987c-.427-2.24-.996-3.716-1.493-3.858z"/>
        <path d="M8.284 9.973L6.56 9.458l-.036-.09c-.017-.07-.088-.141-.177-.212l-.178-.125.142-.16a3.83 3.83 0 0 0 .32-.409c.196-.284.356-.586.48-.889.053-.124.107-.249.142-.373l.018-.053.036-.036a.504.504 0 0 0 .177-.391v-.516a.6.6 0 0 0-.088-.302L7.36 5.85v-.782a2.102 2.102 0 0 0-2.098-2.098h-.746a2.102 2.102 0 0 0-2.098 2.098v.782l-.036.053a.465.465 0 0 0-.089.302v.516c0 .142.071.302.178.391l.036.036.017.053c.036.124.09.249.143.373.124.303.284.605.48.89a8.2 8.2 0 0 0 .32.408l.142.16-.178.125c-.089.07-.16.142-.178.213l-.035.089-1.725.515C.996 10.116.444 11.556 0 13.831a9.603 9.603 0 0 0 4.871 1.333c.213 0 .427 0 .64-.017a9.74 9.74 0 0 0 4.267-1.316c-.427-2.24-.996-3.715-1.494-3.858z"/>
    </g>
</svg>
