<svg xmlns="http://www.w3.org/2000/svg" width="16" height="16" viewBox="0 0 16 16">
    <g fill="none" fill-rule="evenodd" transform="translate(1.5)">
        <rect width="13" height="16" fill="#6124E2" rx="1"/>
        <path fill="#FFF" d="M6.434 2.54c.955 0 1.609.77 1.453 1.714l-.239 1.428c-.093.567-.64 1.03-1.214 1.03s-1.12-.463-1.215-1.03l-.237-1.428c-.157-.943.496-1.714 1.452-1.714zM10 13.417H3V12h7zM10.042 9.669H2.958V8.193c0-.326.253-.674.56-.778L4.765 7c.43.498 1.064.819 1.736.819.673 0 1.307-.323 1.737-.819l1.244.415c.309.104.56.452.56.778v1.476z"/>
    </g>
</svg>
