<svg xmlns="http://www.w3.org/2000/svg" width="18" height="22" viewBox="0 0 18 22">
    <g fill="none" fill-rule="nonzero">
        <path fill="#8E929B" d="M8.761 22a.765.765 0 0 1-.284-.055c-1.878-.755-5.327-2.631-7.341-6.714C-.101 12.726-.046 10.303.038 6.635.06 5.633.086 4.496.086 3.251c0-.333.216-.627.534-.727L8.532.035a.764.764 0 0 1 .458 0l7.913 2.488c.318.1.534.395.534.728 0 1.245.025 2.381.048 3.383.084 3.669.139 6.092-1.098 8.597-2.014 4.084-5.465 5.96-7.342 6.714A.76.76 0 0 1 8.76 22z"/>
        <path fill="#FFF" stroke="#FFF" stroke-width=".6" d="M7.758 12.22L5.69 10.153l-.69.69L7.758 13.6l5.021-5.076-.69-.69z"/>
    </g>
</svg>
