<?xml version="1.0" encoding="UTF-8"?>
<svg width="11px" height="6px" viewBox="0 0 11 6" version="1.1" xmlns="http://www.w3.org/2000/svg" xmlns:xlink="http://www.w3.org/1999/xlink">
    <!-- Generator: sketchtool 51 (57462) - http://www.bohemiancoding.com/sketch -->
    <title>A0F129FD-733B-4FF1-95EF-C2AE6BEE1EFB</title>
    <desc>Created with sketchtool.</desc>
    <defs></defs>
    <g id="Icons-&amp;-Buttons" stroke="none" stroke-width="1" fill="none" fill-rule="evenodd">
        <g id="Expand-Icon/Medium---Dark" fill="#8E929B" fill-rule="nonzero">
            <g id="Account-Expand-Icon" transform="translate(5.500000, 3.000000) rotate(0.000000) translate(-5.500000, -3.000000) translate(2.500000, -2.500000)">
                <path d="M5.53434783,5.7723913 C5.38213043,5.9246087 5.13313043,5.9246087 4.98104348,5.7723913 L0.187434783,0.979173913 C0.0352173913,0.826956522 0.0352173913,0.577956522 0.187434783,0.425869565 L0.465782609,0.147391304 C0.618,-0.00482608696 0.867,-0.00482608696 1.01921739,0.147391304 L5.81282609,4.9406087 C5.96491304,5.09282609 5.96504348,5.34169565 5.81282609,5.49391304 L5.53434783,5.7723913 Z" id="Shape"></path>
                <path d="M0.187565217,10.008913 C0.0353478261,9.85669565 0.0353478261,9.60769565 0.187565217,9.4556087 L4.98078261,4.66213043 C5.133,4.50991304 5.382,4.50991304 5.53408696,4.66213043 L5.81256522,4.9406087 C5.96465217,5.09282609 5.96478261,5.34182609 5.81256522,5.49391304 L1.01921739,10.2873913 C0.867,10.4394783 0.618,10.4396087 0.465913043,10.2873913 L0.187565217,10.008913 Z" id="Shape"></path>
            </g>
        </g>
    </g>
</svg>
