<svg xmlns="http://www.w3.org/2000/svg" width="15" height="15" viewBox="0 0 15 15">
    <g fill="none" fill-rule="evenodd">
        <circle cx="7.5" cy="7.5" r="7.5" fill="#B6BBC7"/>
        <path fill="#FFF" fill-rule="nonzero" d="M7.535 3.467c-.558 0-1.048.115-1.466.345-.42.23-.737.518-.956.868-.219.35-.329.694-.329 1.034 0 .165.068.318.206.46a.682.682 0 0 0 .508.212c.34 0 .57-.203.693-.608.128-.387.286-.68.473-.878.186-.199.476-.298.87-.298.337 0 .612.099.825.295a.95.95 0 0 1 .32.725.814.814 0 0 1-.106.408 1.476 1.476 0 0 1-.258.342c-.101.102-.267.253-.496.454-.26.229-.47.427-.623.594-.154.166-.278.359-.371.58-.094.22-.14.48-.14.782 0 .24.064.42.19.543a.653.653 0 0 0 .472.182c.358 0 .57-.186.638-.558.04-.176.07-.299.09-.369.019-.07.047-.14.082-.21.036-.07.091-.146.164-.23.073-.085.172-.183.293-.294.44-.394.747-.674.917-.84.17-.167.316-.365.44-.594.124-.23.185-.496.185-.801 0-.386-.107-.744-.324-1.074a2.225 2.225 0 0 0-.922-.782c-.397-.192-.856-.288-1.375-.288zm-.128 6.53a.798.798 0 0 0-.581.23.764.764 0 0 0-.237.57c0 .255.082.453.246.594a.845.845 0 0 0 .572.212c.21 0 .397-.072.558-.215.161-.143.241-.34.241-.591a.773.773 0 0 0-.23-.57.773.773 0 0 0-.569-.23z"/>
    </g>
</svg>
